<svg width="1440" height="1104" viewBox="0 0 1440 1104" fill="none" xmlns="http://www.w3.org/2000/svg">
<g clip-path="url(#clip0_141_1271)">
<path opacity="0.18" d="M1481.24 448.996V500.706H1532.95V565.897H1481.24V617.617H1416.04V565.897H1364.32V500.706H1416.04V448.996H1481.24Z" fill="url(#paint0_linear_141_1271)"/>
<path opacity="0.12" d="M1403.15 70.521V90.8446H1423.48V116.473H1403.15V136.797H1377.52V116.473H1357.19V90.8446H1377.52V70.521H1403.15Z" fill="url(#paint1_linear_141_1271)"/>
<path opacity="0.12" d="M509.205 906.622V926.946H529.54V952.575H509.205V972.908H483.574V952.575H463.239V926.946H483.574V906.622H509.205Z" fill="url(#paint2_linear_141_1271)"/>
<path opacity="0.12" d="M961.008 70.521V90.8446H981.333V116.473H961.008V136.806H935.377V116.473H915.042V90.8446H935.377V70.521H961.008Z" fill="url(#paint3_linear_141_1271)"/>
<path opacity="0.45" d="M1149.16 19.6125V39.9362H1169.48V65.565H1149.16V85.898H1123.53V65.565H1103.19V39.9362H1123.53V19.6125H1149.16Z" fill="url(#paint4_linear_141_1271)"/>
<path opacity="0.35" d="M1309 172.092V197.995H1334.9V230.628H1309V256.521H1276.36V230.628H1250.46V197.995H1276.36V172.092H1309Z" fill="url(#paint5_linear_141_1271)"/>
<path opacity="0.12" d="M1485.19 -114.582V-77.6068H1522.18V-30.9841H1485.19V5.99111H1438.56V-30.9841H1401.59V-77.6068H1438.56V-114.582H1485.19Z" fill="url(#paint6_linear_141_1271)"/>
<path opacity="0.12" d="M1471.95 257.634V294.619H1508.93V341.232H1471.95V378.217H1425.33V341.232H1388.34V294.619H1425.33V257.634H1471.95Z" fill="url(#paint7_linear_141_1271)"/>
<path opacity="0.12" d="M1019.29 22.1897V32.3468H1029.45V45.147H1019.29V55.2947H1006.5V45.147H996.344V32.3468H1006.5V22.1897H1019.29Z" fill="url(#paint8_linear_141_1271)"/>
<path opacity="0.35" d="M1171.63 154.619V167.287H1184.28V183.25H1171.63V195.908H1155.66V183.25H1142.99V167.287H1155.66V154.619H1171.63Z" fill="url(#paint9_linear_141_1271)"/>
<path opacity="0.35" d="M607.641 1073.22V1085.89H620.31V1101.85H607.641V1114.51H591.677V1101.85H579.018V1085.89H591.677V1073.22H607.641Z" fill="url(#paint10_linear_141_1271)"/>
<path opacity="0.12" d="M1096.63 109.224V124.733H1112.15V144.292H1096.63V159.801H1077.08V144.292H1061.56V124.733H1077.08V109.224H1096.63Z" fill="url(#paint11_linear_141_1271)"/>
<path opacity="0.12" d="M965.822 986.661V1002.18H981.333V1021.73H965.822V1037.25H946.262V1021.73H930.751V1002.18H946.262V986.661H965.822Z" fill="url(#paint12_linear_141_1271)"/>
<path opacity="0.12" d="M8.01936 981.489V961.156H-12.3154V935.527H8.01936V915.203H33.6503V935.527H53.9851V961.156H33.6503V981.489H8.01936Z" fill="url(#paint13_linear_141_1271)"/>
<path opacity="0.12" d="M240.369 126.366V106.033H220.034V80.4045H240.369V60.0808H265.999V80.4045H286.334V106.033H265.999V126.366H240.369Z" fill="url(#paint14_linear_141_1271)"/>
<path opacity="0.12" d="M93.7295 1114.88V1071.2H50.0483V1016.15H93.7295V972.474H148.786V1016.15H192.468V1071.2H148.786V1114.88H93.7295Z" fill="url(#paint15_linear_141_1271)"/>
<path opacity="0.12" d="M450.164 981.489V961.156H429.83V935.527H450.164V915.203H475.795V935.527H496.13V961.156H475.795V981.489H450.164Z" fill="url(#paint16_linear_141_1271)"/>
<path opacity="0.12" d="M1189.33 1005.53V985.198H1168.99V959.579H1189.33V939.246H1214.95V959.579H1235.28V985.198H1214.95V1005.53H1189.33Z" fill="url(#paint17_linear_141_1271)"/>
<path opacity="0.45" d="M262.015 1032.4V1012.06H241.681V986.435H262.015V966.111H287.646V986.435H307.981V1012.06H287.646V1032.4H262.015Z" fill="url(#paint18_linear_141_1271)"/>
<path opacity="0.45" d="M83.3353 182.285V161.952H63.0005V136.324H83.3353V116H108.966V136.324H129.292V161.952H108.966V182.285H83.3353Z" fill="url(#paint19_linear_141_1271)"/>
<path opacity="0.35" d="M102.169 879.908V854.015H76.2739V821.373H102.169V795.48H134.814V821.373H160.71V854.015H134.814V879.908H102.169Z" fill="url(#paint20_linear_141_1271)"/>
<path opacity="0.12" d="M-74.0185 1166.59V1129.61H-111.006V1082.99H-74.0185V1046.01H-27.4014V1082.99H9.58644V1129.61H-27.4014V1166.59H-74.0185Z" fill="url(#paint21_linear_141_1271)"/>
<path opacity="0.12" d="M-60.7734 794.366V757.39H-97.7612V710.768H-60.7734V673.792H-14.1563V710.768H22.8316V757.39H-14.1563V794.366H-60.7734Z" fill="url(#paint22_linear_141_1271)"/>
<path opacity="0.12" d="M-6.0378 115.935V77.176H-44.791V28.3256H-6.0378V-10.4243H42.8167V28.3256H81.5794V77.176H42.8167V115.935H-6.0378Z" fill="url(#paint23_linear_141_1271)"/>
<path opacity="0.12" d="M391.869 1029.81V1019.66H381.721V1006.86H391.869V996.706H404.671V1006.86H414.829V1019.66H404.671V1029.81H391.869Z" fill="url(#paint24_linear_141_1271)"/>
<path opacity="0.35" d="M239.547 897.381V884.722H226.888V868.76H239.547V856.092H255.511V868.76H268.171V884.722H255.511V897.381H239.547Z" fill="url(#paint25_linear_141_1271)"/>
<path opacity="0.12" d="M314.533 942.786V927.267H299.022V907.718H314.533V892.199H334.094V907.718H349.614V927.267H334.094V942.786H314.533Z" fill="url(#paint26_linear_141_1271)"/>
</g>
<defs>
<linearGradient id="paint0_linear_141_1271" x1="1532.95" y1="533.305" x2="1364.32" y2="533.305" gradientUnits="userSpaceOnUse">
<stop stop-color="#47BECC"/>
<stop offset="1" stop-color="#4C94D3"/>
</linearGradient>
<linearGradient id="paint1_linear_141_1271" x1="1423.48" y1="103.659" x2="1357.19" y2="103.659" gradientUnits="userSpaceOnUse">
<stop stop-color="#47BECC"/>
<stop offset="1" stop-color="#4C94D3"/>
</linearGradient>
<linearGradient id="paint2_linear_141_1271" x1="529.536" y1="939.764" x2="463.244" y2="939.764" gradientUnits="userSpaceOnUse">
<stop stop-color="#47BECC"/>
<stop offset="1" stop-color="#4C94D3"/>
</linearGradient>
<linearGradient id="paint3_linear_141_1271" x1="981.336" y1="103.659" x2="915.044" y2="103.659" gradientUnits="userSpaceOnUse">
<stop stop-color="#47BECC"/>
<stop offset="1" stop-color="#4C94D3"/>
</linearGradient>
<linearGradient id="paint4_linear_141_1271" x1="1169.49" y1="52.7539" x2="1103.19" y2="52.7539" gradientUnits="userSpaceOnUse">
<stop stop-color="#47BECC"/>
<stop offset="1" stop-color="#4C94D3"/>
</linearGradient>
<linearGradient id="paint5_linear_141_1271" x1="1334.9" y1="214.31" x2="1250.46" y2="214.31" gradientUnits="userSpaceOnUse">
<stop stop-color="#47BECC"/>
<stop offset="1" stop-color="#4C94D3"/>
</linearGradient>
<linearGradient id="paint6_linear_141_1271" x1="1522.17" y1="-54.2969" x2="1401.58" y2="-54.2969" gradientUnits="userSpaceOnUse">
<stop stop-color="#47BECC"/>
<stop offset="1" stop-color="#4C94D3"/>
</linearGradient>
<linearGradient id="paint7_linear_141_1271" x1="1508.93" y1="317.925" x2="1388.34" y2="317.925" gradientUnits="userSpaceOnUse">
<stop stop-color="#47BECC"/>
<stop offset="1" stop-color="#4C94D3"/>
</linearGradient>
<linearGradient id="paint8_linear_141_1271" x1="1029.45" y1="38.7432" x2="996.345" y2="38.7432" gradientUnits="userSpaceOnUse">
<stop stop-color="#47BECC"/>
<stop offset="1" stop-color="#4C94D3"/>
</linearGradient>
<linearGradient id="paint9_linear_141_1271" x1="1184.29" y1="175.267" x2="1143" y2="175.267" gradientUnits="userSpaceOnUse">
<stop stop-color="#47BECC"/>
<stop offset="1" stop-color="#4C94D3"/>
</linearGradient>
<linearGradient id="paint10_linear_141_1271" x1="620.307" y1="1093.87" x2="579.015" y2="1093.87" gradientUnits="userSpaceOnUse">
<stop stop-color="#47BECC"/>
<stop offset="1" stop-color="#4C94D3"/>
</linearGradient>
<linearGradient id="paint11_linear_141_1271" x1="1112.15" y1="134.511" x2="1061.56" y2="134.511" gradientUnits="userSpaceOnUse">
<stop stop-color="#47BECC"/>
<stop offset="1" stop-color="#4C94D3"/>
</linearGradient>
<linearGradient id="paint12_linear_141_1271" x1="981.336" y1="1011.95" x2="930.749" y2="1011.95" gradientUnits="userSpaceOnUse">
<stop stop-color="#47BECC"/>
<stop offset="1" stop-color="#4C94D3"/>
</linearGradient>
<linearGradient id="paint13_linear_141_1271" x1="-12.3113" y1="948.345" x2="53.981" y2="948.345" gradientUnits="userSpaceOnUse">
<stop stop-color="#47BECC"/>
<stop offset="1" stop-color="#4C94D3"/>
</linearGradient>
<linearGradient id="paint14_linear_141_1271" x1="220.038" y1="93.2213" x2="286.33" y2="93.2213" gradientUnits="userSpaceOnUse">
<stop stop-color="#47BECC"/>
<stop offset="1" stop-color="#4C94D3"/>
</linearGradient>
<linearGradient id="paint15_linear_141_1271" x1="50.0465" y1="1043.68" x2="192.466" y2="1043.68" gradientUnits="userSpaceOnUse">
<stop stop-color="#47BECC"/>
<stop offset="1" stop-color="#4C94D3"/>
</linearGradient>
<linearGradient id="paint16_linear_141_1271" x1="429.834" y1="948.345" x2="496.126" y2="948.345" gradientUnits="userSpaceOnUse">
<stop stop-color="#47BECC"/>
<stop offset="1" stop-color="#4C94D3"/>
</linearGradient>
<linearGradient id="paint17_linear_141_1271" x1="1168.99" y1="972.389" x2="1235.28" y2="972.389" gradientUnits="userSpaceOnUse">
<stop stop-color="#47BECC"/>
<stop offset="1" stop-color="#4C94D3"/>
</linearGradient>
<linearGradient id="paint18_linear_141_1271" x1="241.685" y1="999.25" x2="307.977" y2="999.25" gradientUnits="userSpaceOnUse">
<stop stop-color="#47BECC"/>
<stop offset="1" stop-color="#4C94D3"/>
</linearGradient>
<linearGradient id="paint19_linear_141_1271" x1="63.0037" y1="149.139" x2="129.296" y2="149.139" gradientUnits="userSpaceOnUse">
<stop stop-color="#47BECC"/>
<stop offset="1" stop-color="#4C94D3"/>
</linearGradient>
<linearGradient id="paint20_linear_141_1271" x1="76.2755" y1="837.694" x2="160.712" y2="837.694" gradientUnits="userSpaceOnUse">
<stop stop-color="#47BECC"/>
<stop offset="1" stop-color="#4C94D3"/>
</linearGradient>
<linearGradient id="paint21_linear_141_1271" x1="-111.004" y1="1106.3" x2="9.58663" y2="1106.3" gradientUnits="userSpaceOnUse">
<stop stop-color="#47BECC"/>
<stop offset="1" stop-color="#4C94D3"/>
</linearGradient>
<linearGradient id="paint22_linear_141_1271" x1="-97.76" y1="734.079" x2="22.8303" y2="734.079" gradientUnits="userSpaceOnUse">
<stop stop-color="#47BECC"/>
<stop offset="1" stop-color="#4C94D3"/>
</linearGradient>
<linearGradient id="paint23_linear_141_1271" x1="-44.7935" y1="52.7542" x2="81.5759" y2="52.7542" gradientUnits="userSpaceOnUse">
<stop stop-color="#47BECC"/>
<stop offset="1" stop-color="#4C94D3"/>
</linearGradient>
<linearGradient id="paint24_linear_141_1271" x1="381.72" y1="1013.26" x2="414.826" y2="1013.26" gradientUnits="userSpaceOnUse">
<stop stop-color="#47BECC"/>
<stop offset="1" stop-color="#4C94D3"/>
</linearGradient>
<linearGradient id="paint25_linear_141_1271" x1="226.884" y1="876.738" x2="268.176" y2="876.738" gradientUnits="userSpaceOnUse">
<stop stop-color="#47BECC"/>
<stop offset="1" stop-color="#4C94D3"/>
</linearGradient>
<linearGradient id="paint26_linear_141_1271" x1="299.023" y1="917.494" x2="349.61" y2="917.494" gradientUnits="userSpaceOnUse">
<stop stop-color="#47BECC"/>
<stop offset="1" stop-color="#4C94D3"/>
</linearGradient>
<clipPath id="clip0_141_1271">
<rect width="2593" height="1322" fill="white" transform="translate(-456 -135)"/>
</clipPath>
</defs>
</svg>
